# xmcd CD database file
#
# Track frame offsets:
#	150
#	13607
#	33005
#	45847
#	60512
#	77385
#	92255
#	105760
#	123440
#	137742
#	151250
#	164065
#	176580
#	193500
#	201442
#	212487
#	222180
#	240317
#	257615
#	265247
#	280192
#
# Disc length: 3892 seconds
#
# Revision: 0
# Processed by: cddbd v1.5.2PL0 Copyright (c) Steve Scherf et al.
# Submitted via: CDex 1.51
#
DISCID=080f3215
DTITLE=Lazy Ade Monsbourgh And His Late Hour Boys - Wild Life
DYEAR=1900
DGENRE=Jazz
TTITLE0=Sir Henry Cracked It
TTITLE1=More Than Good Lookin'
TTITLE2=Don't Monkey With It
TTITLE3=Exactly Like You
TTITLE4=More Than Good Lookin'
TTITLE5=My Monday Date
TTITLE6=Wild Life
TTITLE7=I Ain't Gonna Give Nobody None Of My Jelly Roll
TTITLE8=My Buddy
TTITLE9=Sweet Georgia Brown
TTITLE10=If I Could Be With You One Hour Tonight
TTITLE11=All Steamed Up
TTITLE12=Baby Won't You Please Come Home
TTITLE13=Piping Hot
TTITLE14=Won't You Come Over To My House Baby
TTITLE15=No Escape
TTITLE16=All Of Me
TTITLE17=I Cried For You
TTITLE18=Smoke Up
TTITLE19=Turnup A Card
TTITLE20=Look Down The Road
EXTD=
EXTT0=
EXTT1=
EXTT2=
EXTT3=
EXTT4=
EXTT5=
EXTT6=
EXTT7=
EXTT8=
EXTT9=
EXTT10=
EXTT11=
EXTT12=
EXTT13=
EXTT14=
EXTT15=
EXTT16=
EXTT17=
EXTT18=
EXTT19=
EXTT20=
PLAYORDER=
